<?xml version="1.0" encoding="iso-8859-1"?>
<!-- Generator: Adobe Illustrator 19.0.0, SVG Export Plug-In . SVG Version: 6.00 Build 0)  -->
<svg version="1.1" id="Layer_1" xmlns="http://www.w3.org/2000/svg" xmlns:xlink="http://www.w3.org/1999/xlink" x="0px" y="0px"
	 viewBox="0 0 512 512" style="enable-background:new 0 0 512 512;" xml:space="preserve">
<g transform="translate(1 1)">
	<path style="fill:#63D3FD;" d="M391.533,144.067c61.44,0,110.933,49.493,110.933,110.933s-49.493,110.933-110.933,110.933
		S280.6,316.44,280.6,255S330.093,144.067,391.533,144.067"/>
	<path style="fill:#FFE100;" d="M118.467,144.067C165.4,144.067,203.8,193.56,203.8,255s-38.4,110.933-85.333,110.933
		S33.133,316.44,33.133,255S71.533,144.067,118.467,144.067"/>
	<path style="fill:#FFA800;" d="M118.467,144.067C165.4,144.067,203.8,193.56,203.8,255s-38.4,110.933-85.333,110.933
		c61.44,0,110.933-49.493,110.933-110.933S179.907,144.067,118.467,144.067"/>
	<path style="fill:#3DB9F9;" d="M391.533,144.067c46.933,0,85.333,49.493,85.333,110.933s-38.4,110.933-85.333,110.933
		c61.44,0,110.933-49.493,110.933-110.933S452.973,144.067,391.533,144.067"/>
	<g>
		<path style="fill:#FFFFFF;" d="M33.133,255c0-61.44,38.4-110.933,85.333-110.933C57.027,144.067,7.533,193.56,7.533,255
			s49.493,110.933,110.933,110.933C71.533,365.933,33.133,316.44,33.133,255"/>
		<path style="fill:#FFFFFF;" d="M306.2,255c0-61.44,38.4-110.933,85.333-110.933C330.093,144.067,280.6,193.56,280.6,255
			s49.493,110.933,110.933,110.933C344.6,365.933,306.2,316.44,306.2,255"/>
	</g>
	<path d="M118.467,374.467C52.76,374.467-1,320.707-1,255c0-23.04,5.973-44.373,18.773-64c2.56-4.267,7.68-5.12,11.947-2.56
		c3.413,2.56,4.267,7.68,1.707,11.947C21.187,216.6,16.067,235.373,16.067,255c0,56.32,46.08,102.4,102.4,102.4
		s102.4-46.08,102.4-102.4s-46.08-102.4-102.4-102.4c-16.213,0-32.427,4.267-46.933,11.947c-4.267,1.707-9.387,0-11.947-4.267
		c-1.707-4.267-0.853-9.387,3.413-11.093c17.067-8.533,35.84-13.653,55.467-13.653c65.707,0,119.467,53.76,119.467,119.467
		S184.173,374.467,118.467,374.467z"/>
	<path d="M51.907,173.08c0-5.12-3.413-8.533-8.533-8.533s-8.533,3.413-8.533,8.533c0,5.12,3.413,8.533,8.533,8.533
		S51.907,178.2,51.907,173.08"/>
	<path d="M391.533,374.467c-65.707,0-119.467-53.76-119.467-119.467s53.76-119.467,119.467-119.467S511,189.293,511,255
		S457.24,374.467,391.533,374.467z M391.533,152.6c-56.32,0-102.4,46.08-102.4,102.4s46.08,102.4,102.4,102.4
		s102.4-46.08,102.4-102.4S447.853,152.6,391.533,152.6z"/>
</g>
<g>
</g>
<g>
</g>
<g>
</g>
<g>
</g>
<g>
</g>
<g>
</g>
<g>
</g>
<g>
</g>
<g>
</g>
<g>
</g>
<g>
</g>
<g>
</g>
<g>
</g>
<g>
</g>
<g>
</g>
</svg>
