<?xml version="1.0" encoding="iso-8859-1"?>
<!-- Generator: Adobe Illustrator 19.0.0, SVG Export Plug-In . SVG Version: 6.00 Build 0)  -->
<svg version="1.1" id="Layer_1" xmlns="http://www.w3.org/2000/svg" xmlns:xlink="http://www.w3.org/1999/xlink" x="0px" y="0px"
	 viewBox="0 0 512 512" style="enable-background:new 0 0 512 512;" xml:space="preserve">
<g transform="translate(0 1)">
	<path style="fill:#FFE100;" d="M340.48,502.467H171.52c-75.947,0-137.387-61.44-137.387-137.387V144.92
		c0-75.947,61.44-137.387,137.387-137.387h168.96c75.947,0,137.387,61.44,137.387,137.387v220.16
		C477.867,441.027,416.427,502.467,340.48,502.467"/>
	<path style="fill:#FFFFFF;" d="M34.133,365.08V144.92c0-75.947,61.44-137.387,137.387-137.387h-25.6
		C69.973,7.533,8.533,68.973,8.533,144.92v220.16c0,75.947,61.44,137.387,137.387,137.387h25.6
		C95.573,502.467,34.133,441.027,34.133,365.08"/>
	<path style="fill:#FFA800;" d="M366.08,7.533h-25.6c75.947,0,137.387,61.44,137.387,137.387v220.16
		c0,75.947-61.44,137.387-137.387,137.387h25.6c75.947,0,137.387-61.44,137.387-137.387V144.92
		C503.467,68.973,442.027,7.533,366.08,7.533"/>
	<path style="fill:#FDCC00;" d="M59.733,365.08V144.92c0-47.787,38.4-86.187,86.187-86.187h194.56
		c47.787,0,86.187,38.4,86.187,86.187v220.16c0,47.787-38.4,86.187-86.187,86.187H145.92
		C98.133,451.267,59.733,412.867,59.733,365.08"/>
	<path style="fill:#FFA800;" d="M366.08,58.733h-25.6c47.787,0,86.187,38.4,86.187,86.187v220.16
		c0,47.787-38.4,86.187-86.187,86.187h25.6c47.787,0,86.187-38.4,86.187-86.187V144.92C452.267,97.133,413.867,58.733,366.08,58.733
		"/>
	<path style="fill:#FFE100;" d="M256,383c-70.827,0-128-57.173-128-128s57.173-128,128-128s128,57.173,128,128S326.827,383,256,383"
		/>
	<path style="fill:#63D3FD;" d="M315.733,255c0-46.933-32.427-85.333-72.533-85.333s-72.533,38.4-72.533,85.333
		s32.427,85.333,72.533,85.333S315.733,301.933,315.733,255"/>
	<path style="fill:#3DB9F9;" d="M256,169.667c-2.56,0-4.267,0-6.827,0c37.547,3.413,66.56,40.107,66.56,85.333
		s-29.013,81.067-66.56,85.333c2.56,0,4.267,0,6.827,0c46.933,0,85.333-38.4,85.333-85.333S302.933,169.667,256,169.667"/>
	<path d="M366.08,511H145.92C65.707,511,0,445.293,0,365.08V237.933c0-5.12,3.413-8.533,8.533-8.533s8.533,3.413,8.533,8.533V365.08
		c0,70.827,58.027,128.853,128.853,128.853h220.16c70.827,0,128.853-58.027,128.853-128.853V144.92
		c0-70.827-58.027-128.853-128.853-128.853H145.92c-70.827,0-128.853,58.027-128.853,128.853v24.747c0,5.12-3.413,8.533-8.533,8.533
		S0,174.787,0,169.667V144.92C0,64.707,65.707-1,145.92-1h220.16C446.293-1,512,64.707,512,144.92v220.16
		C512,445.293,446.293,511,366.08,511z"/>
	<path d="M17.067,203.8c0-5.12-3.413-8.533-8.533-8.533S0,198.68,0,203.8c0,5.12,3.413,8.533,8.533,8.533
		S17.067,208.92,17.067,203.8"/>
	<path d="M256,391.533c-75.093,0-136.533-61.44-136.533-136.533S180.907,118.467,256,118.467S392.533,179.907,392.533,255
		S331.093,391.533,256,391.533z M256,135.533c-65.707,0-119.467,53.76-119.467,119.467S190.293,374.467,256,374.467
		S375.467,320.707,375.467,255S321.707,135.533,256,135.533z"/>
	<path d="M256,348.867c-52.053,0-93.867-41.813-93.867-93.867s41.813-93.867,93.867-93.867s93.867,41.813,93.867,93.867
		S308.053,348.867,256,348.867z M256,178.2c-42.667,0-76.8,34.133-76.8,76.8s34.133,76.8,76.8,76.8s76.8-34.133,76.8-76.8
		S298.667,178.2,256,178.2z"/>
	<path d="M418.133,118.467c0-14.507-11.093-25.6-25.6-25.6s-25.6,11.093-25.6,25.6s11.093,25.6,25.6,25.6
		S418.133,132.973,418.133,118.467"/>
	<path d="M366.08,459.8H145.92c-52.053,0-94.72-42.667-94.72-94.72V144.92c0-52.053,42.667-94.72,94.72-94.72h220.16
		c52.053,0,94.72,42.667,94.72,94.72v220.16C460.8,417.133,418.133,459.8,366.08,459.8z M145.92,67.267
		c-42.667,0-77.653,34.987-77.653,77.653v220.16c0,42.667,34.987,77.653,77.653,77.653h220.16c42.667,0,77.653-34.987,77.653-77.653
		V144.92c0-42.667-34.987-77.653-77.653-77.653H145.92z"/>
</g>
<g>
</g>
<g>
</g>
<g>
</g>
<g>
</g>
<g>
</g>
<g>
</g>
<g>
</g>
<g>
</g>
<g>
</g>
<g>
</g>
<g>
</g>
<g>
</g>
<g>
</g>
<g>
</g>
<g>
</g>
</svg>
