<?xml version="1.0" encoding="iso-8859-1"?>
<!-- Generator: Adobe Illustrator 19.0.0, SVG Export Plug-In . SVG Version: 6.00 Build 0)  -->
<svg version="1.1" id="Layer_1" xmlns="http://www.w3.org/2000/svg" xmlns:xlink="http://www.w3.org/1999/xlink" x="0px" y="0px"
	 viewBox="0 0 504.863 504.863" style="enable-background:new 0 0 504.863 504.863;" xml:space="preserve">
<g transform="translate(1 1)">
	<path style="fill:#FFE100;" d="M469.872,118.535c3.357-20.984,3.357-41.967-9.233-57.915
		c-17.626-22.662-31.056-23.502-57.075-19.305c-20.984,3.357-91.488,35.252-115.829,110.793
		c42.807-3.357,64.629,3.357,60.433,50.361c-1.679,20.144-11.751,41.967-22.662,62.951c-18.466,34.413-44.485,61.272-66.308,36.931
		c-28.538-31.056-26.02-89.81-32.734-128.42c-3.357-21.823-7.554-49.521-14.269-72.184c-5.875-19.305-20.144-42.807-36.931-47.843
		c-18.466-5.875-17.626,3.357-31.056,10.911c-42.807,25.18-74.702,61.272-111.633,91.489v2.518
		c7.554,6.715,9.233,18.466,20.144,20.144c25.18,4.197,49.521-23.502,66.308,5.036c10.072,17.626,13.43,36.931,20.144,56.236
		c8.393,25.18,15.948,52.879,22.662,82.256c11.751,49.521,3.357,122.544,45.325,141.01c21.823,9.233,28.538-3.357,44.485-12.59
		c44.485-26.859,73.023-64.63,102.4-104.079C421.19,253.67,463.997,148.752,469.872,118.535"/>
	<g>
		<path style="fill:#FFFFFF;" d="M32.574,158.824v-2.518c36.931-29.377,68.826-65.469,111.633-91.489
			c9.233-5.875,11.751-11.751,19.305-12.59c-15.948-0.839-33.574,5.875-44.485,12.59C76.22,89.998,44.325,126.089,7.393,156.306
			v2.518c7.554,6.715,9.233,18.466,20.144,20.144c6.715,0.839,13.43,0,20.144-1.679C40.967,173.093,38.449,164.699,32.574,158.824"
			/>
		<path style="fill:#FFFFFF;" d="M207.157,462.666c-41.967-17.626-33.574-91.489-45.325-141.01
			c-7.554-29.377-14.269-57.075-22.662-82.256c-6.715-19.305-10.072-38.61-20.144-56.236c-9.233-16.787-21.823-14.269-35.252-10.072
			c3.357,1.679,6.715,5.036,10.072,10.072c10.072,17.626,13.43,36.931,20.144,56.236c8.393,25.18,15.948,52.879,22.662,82.256
			c11.751,49.521,26.859,122.544,68.826,141.01c5.875,2.518,10.072,3.357,14.269,3.357
			C216.39,466.024,212.193,465.184,207.157,462.666"/>
	</g>
	<path style="fill:#FFA800;" d="M401.046,41.316c26.02-4.197,39.449-3.357,57.075,19.305c12.59,15.948,12.59,37.77,9.233,57.915
		c-5.875,30.216-48.682,135.134-115.829,227.462c-29.377,39.449-57.915,77.22-102.4,104.079
		c-9.233,5.875-15.948,12.59-23.502,15.108c17.626-0.839,37.77-9.233,48.682-15.948c44.485-26.859,78.898-64.629,108.275-104.079
		c67.148-92.328,104.079-197.246,109.954-227.462c3.357-20.984,3.357-41.967-9.233-57.915
		c-17.626-22.662-55.397-23.502-80.577-19.305"/>
	<path d="M223.105,473.578c-7.554,0-14.269-0.839-20.984-4.197c-42.807-18.466-59.593-86.452-71.344-135.974l-2.518-11.751
		c-4.197-15.948-7.554-31.895-11.751-47.003c-0.839-4.197,1.679-9.233,5.875-10.072s9.233,1.679,10.072,5.875
		c4.197,15.108,8.393,31.056,11.751,47.003l2.518,11.751c10.911,46.164,26.02,109.115,61.272,124.223
		c17.626,7.554,47.003-3.357,62.111-12.59c47.843-27.698,81.416-68.826,106.597-101.561
		c67.148-92.328,103.239-198.085,108.275-223.266c4.197-23.502,1.679-39.449-7.554-51.2C459.8,42.155,416.993,46.352,404.403,48.87
		c-12.59,1.679-77.22,26.02-104.918,93.167c17.626-0.839,34.413,1.679,45.325,12.59c10.072,10.072,13.43,25.18,11.751,47.843
		c-1.679,22.662-13.43,46.164-23.502,65.469l-0.839,1.679c-10.072,19.305-26.02,48.682-48.682,52.039
		c-10.911,1.679-21.823-3.357-31.895-14.269c-23.502-25.18-27.698-66.308-31.056-102.4c-0.839-10.911-2.518-20.984-3.357-30.216
		l-1.679-9.233c-3.357-20.144-6.715-41.967-12.59-61.272c-5.875-18.466-18.466-38.61-31.895-41.967
		c-15.108-4.197-35.252,2.518-47.843,10.072c-26.859,15.108-50.361,36.092-73.862,57.075c-10.072,9.233-20.984,19.305-31.895,27.698
		c0.839,1.679,1.679,3.357,3.357,4.197c3.357,5.036,5.036,7.554,7.554,7.554c7.554,0.839,15.108-1.679,23.502-4.197
		c14.269-5.036,34.413-10.911,48.682,12.59c5.875,10.072,9.233,20.984,13.43,33.574c1.679,4.197-0.839,9.233-5.875,10.072
		c-4.197,1.679-9.233-0.839-10.072-5.875c-3.357-11.751-6.715-20.984-11.751-29.377c-6.715-11.751-13.43-10.072-29.377-5.036
		c-9.233,3.357-20.144,5.875-31.056,4.197S9.911,174.771,6.554,168.896c-1.679-2.518-3.357-5.036-5.036-6.715
		c-1.679,0-2.518-2.518-2.518-4.197v-2.518c0-2.518,0.839-5.036,3.357-6.715c12.59-10.072,24.341-20.984,36.092-31.895
		c23.502-20.984,47.843-42.807,76.38-60.433c15.948-10.072,41.128-17.626,61.272-11.751c20.984,5.875,36.092,32.734,42.807,53.718
		c5.875,20.144,10.072,42.807,13.43,63.79l1.679,9.233c1.679,10.072,2.518,20.144,4.197,31.895
		c3.357,33.574,7.554,71.344,26.859,92.328c5.875,6.715,11.751,10.072,17.626,9.233c14.269-1.679,28.538-28.538,36.092-42.807
		l0.839-1.679c10.072-18.466,20.144-40.289,21.823-59.593c1.679-17.626-0.839-28.538-6.715-34.413
		c-6.715-6.715-20.144-9.233-45.325-6.715c-2.518,0-5.875-0.839-7.554-3.357c-1.679-2.518-2.518-5.036-1.679-7.554
		C304.521,69.853,378.384,35.44,401.885,31.243c15.108-2.518,65.469-7.554,88.97,22.662c11.751,15.108,15.948,36.931,10.911,64.63
		c-5.036,27.698-41.128,134.295-111.633,230.82c-26.02,34.413-61.272,76.38-110.793,106.597
		C266.751,463.506,244.089,473.578,223.105,473.578z"/>
	<path d="M126.58,244.437c0-5.036-3.357-8.393-8.393-8.393c-5.036,0-8.393,3.357-8.393,8.393s3.357,8.393,8.393,8.393
		C123.223,252.83,126.58,248.634,126.58,244.437"/>
</g>
<g>
</g>
<g>
</g>
<g>
</g>
<g>
</g>
<g>
</g>
<g>
</g>
<g>
</g>
<g>
</g>
<g>
</g>
<g>
</g>
<g>
</g>
<g>
</g>
<g>
</g>
<g>
</g>
<g>
</g>
</svg>
